<?xml version="1.0" encoding="UTF-8" standalone="no"?>
<svg
   width="189.74788mm"
   height="189.74788mm"
   viewBox="0 0 189.74788 189.74788"
   version="1.1"
   id="svg8"
   inkscape:version="1.1 (c68e22c387, 2021-05-23)"
   sodipodi:docname="icon.svg"
   xmlns:inkscape="http://www.inkscape.org/namespaces/inkscape"
   xmlns:sodipodi="http://sodipodi.sourceforge.net/DTD/sodipodi-0.dtd"
   xmlns="http://www.w3.org/2000/svg"
   xmlns:svg="http://www.w3.org/2000/svg"
   xmlns:rdf="http://www.w3.org/1999/02/22-rdf-syntax-ns#"
   xmlns:cc="http://creativecommons.org/ns#"
   xmlns:dc="http://purl.org/dc/elements/1.1/">
  <defs
     id="defs2" />
  <sodipodi:namedview
     id="base"
     pagecolor="#ffffff"
     bordercolor="#666666"
     borderopacity="1.0"
     inkscape:pageopacity="0.0"
     inkscape:pageshadow="2"
     inkscape:zoom="1"
     inkscape:cx="519.5"
     inkscape:cy="319.5"
     inkscape:document-units="mm"
     inkscape:current-layer="layer1"
     inkscape:document-rotation="0"
     showgrid="false"
     fit-margin-top="0"
     fit-margin-left="0"
     fit-margin-right="0"
     fit-margin-bottom="0"
     inkscape:window-width="1920"
     inkscape:window-height="1017"
     inkscape:window-x="1912"
     inkscape:window-y="-8"
     inkscape:window-maximized="1"
     inkscape:pagecheckerboard="1" />
  <metadata
     id="metadata5">
    <rdf:RDF>
      <cc:Work
         rdf:about="">
        <dc:format>image/svg+xml</dc:format>
        <dc:type
           rdf:resource="http://purl.org/dc/dcmitype/StillImage" />
        <dc:title />
      </cc:Work>
    </rdf:RDF>
  </metadata>
  <g
     inkscape:label="Ebene 1"
     inkscape:groupmode="layer"
     id="layer1"
     transform="translate(-9.6021452,-58.463917)">
    <path
       style="fill:#640064;fill-opacity:0.15000001;stroke:none;stroke-width:0.19;stroke-miterlimit:4;stroke-dasharray:none;stroke-dashoffset:0;stroke-opacity:1"
       d="M 134.05805,172.69837 C 120.4946,160.86896 116.26331,155.01793 116.26331,155.01793 l -2.0311,5.70502 c 0,0 -2.63812,-3.56217 -1.11818,-11.07396 -2.20746,5.07092 -5.19071,14.88572 -5.19071,14.88572 0,0 -6.44579,-13.84125 -0.8497,-27.50123 5.61673,-13.71037 20.72932,-14.41769 20.72932,-14.41769 0,0 -5.93678,-1.81406 -9.29181,-2.54127 4.89954,-3.50115 6.22671,-4.18659 10.8986,-7.49093 -5.21399,1.2736 -11.17884,-0.54799 -14.64029,-2.50442 -8.45495,-0.17993 -17.295672,1.08721 -26.661766,1.83187 13.054596,-4.38635 23.043576,-7.61397 37.151486,-12.228595 4.67145,1.646345 8.61529,2.895825 14.01433,4.939045 0.86091,-0.77421 2.61442,-2.30691 2.61442,-2.30691 0,0 -50.920166,-24.170966 -81.83591,27.9915 -4.552291,7.68084 -8.670844,17.01674 -12.129223,28.32858 1.459746,-97.638325 78.809713,-69.410305 79.599663,-69.27752 -0.48133,-2.11158 -0.43953,-1.921764 -0.82214,-3.982379 12.13171,6.701948 12.09669,6.796038 21.3996,13.263932 20.81647,4.870467 31.40059,20.762507 13.78292,34.909057 -0.83717,-11.52861 -16.44416,-13.18884 -24.63844,-9.37884 -6.50448,3.19109 -11.06036,9.91654 -11.06036,15.30581 0,5.78547 4.01255,11.58439 12.33361,17.8245 9.6087,7.20573 16.77364,15.02386 20.59645,23.26919 6.99263,15.08224 2.59339,25.75034 -7.70455,38.07861 7.41136,-21.76599 -3.09405,-33.51399 -17.35148,-45.94865 z"
       sodipodi:nodetypes="sccccsccccccccsccccccssscs"
       id="path12960" />
    <path
       style="fill:#ff0000;stroke-width:0.189748"
       id="path847"
       d="" />
    <text
       xml:space="preserve"
       style="font-size:59.9722px;line-height:1.25;font-family:sans-serif;fill:#640064;fill-opacity:0.15000001;stroke:#640064;stroke-width:1.3;stroke-miterlimit:4;stroke-dasharray:none;stroke-opacity:0"
       x="45.201069"
       y="216.88797"
       id="text14230"><tspan
         sodipodi:role="line"
         id="tspan14228"
         style="font-size:59.9722px;fill:#640064;fill-opacity:0.15000001;stroke:#640064;stroke-width:1.3;stroke-miterlimit:4;stroke-dasharray:none;stroke-opacity:0"
         x="45.201069"
         y="216.88797">CG</tspan></text>
  </g>
</svg>
